# xmcd
#
# Track frame offsets: 
#        150
#        16789
#        31392
#        46441
#        59724
#        76380
#        91957
#        107853
#        120027
#        136227
#
# Disc length: 2031 seconds
#
# Revision: 0
# Processed by: cddbd v1.5.1PL2 Copyright (c) Steve Scherf et al.
# Submitted via: ExactAudioCopy v0.95b4
#
DISCID=7807ed0a
DTITLE=ไกรศร  เรืองศรี - ผิดหวังซ้ำเฒ่า
DYEAR=2003
DGENRE=Country
TTITLE0=ผิดหวังซ้ำเฒ่า
TTITLE1=อยากเผาเครื่องไฟ
TTITLE2=อยากได้เขยฝรั่ง
TTITLE3=อย่าฟ้าวป๋าถิ่ม
TTITLE4=เส้นทางชีวิต
TTITLE5=ขอเมาหน้าบ้าน
TTITLE6=เอิ้นสั่งนาง
TTITLE7=ป่าแคนเลาะโขง
TTITLE8=ลมหวี่อยากมีเมีย
TTITLE9=หนาวนี้อยากมีคู่
EXTD=
EXTT0=
EXTT1=
EXTT2=
EXTT3=
EXTT4=
EXTT5=
EXTT6=
EXTT7=
EXTT8=
EXTT9=
PLAYORDER=
